<?xml version="1.0" encoding="UTF-8" standalone="no"?><!DOCTYPE svg PUBLIC "-//W3C//DTD SVG 1.1//EN" "http://www.w3.org/Graphics/SVG/1.1/DTD/svg11.dtd"><svg width="100%" height="100%" viewBox="0 0 1600 1600" version="1.1" xmlns="http://www.w3.org/2000/svg" xmlns:xlink="http://www.w3.org/1999/xlink" xml:space="preserve" xmlns:serif="http://www.serif.com/" style="fill-rule:evenodd;clip-rule:evenodd;stroke-linejoin:round;stroke-miterlimit:2;"><path d="M1021.88,500c-0,-51.742 -42.008,-93.75 -93.75,-93.75l-250,0c-51.742,0 -93.75,42.008 -93.75,93.75c0,51.742 42.008,93.75 93.75,93.75l250,0c51.742,0 93.75,-42.008 93.75,-93.75Zm-58.333,0c-0,19.547 -15.87,35.417 -35.417,35.417c-0,-0 -250,-0 -250,-0c-19.547,-0 -35.417,-15.87 -35.417,-35.417c0,-19.547 15.87,-35.417 35.417,-35.417l250,0c19.547,0 35.417,15.87 35.417,35.417Z" style="fill:#234b62;"/><path d="M643.711,531.463c10.633,4.296 303.695,3.254 312.578,0.439l-0,154.935l382.51,680.337c27.202,48.382 26.696,107.563 -1.33,155.472c-28.026,47.909 -79.365,77.354 -134.869,77.354c-232.653,0 -568.245,0 -800.898,0c-55.504,-0 -106.842,-29.445 -134.868,-77.354c-28.026,-47.909 -28.533,-107.09 -1.331,-155.472l378.208,-672.685l0,-163.026Zm250.078,64.798l-0,90.576c-0,10.729 2.762,21.278 8.02,30.63l382.51,680.337c16.322,29.029 16.018,64.538 -0.798,93.283c-16.815,28.746 -47.618,46.413 -80.921,46.413c-0,-0 -800.898,0 -800.898,0c-33.303,-0 -64.105,-17.667 -80.921,-46.413c-16.816,-28.745 -17.119,-64.254 -0.798,-93.283c-0,0 378.208,-672.685 378.208,-672.685c5.258,-9.352 8.02,-19.901 8.02,-30.63l0,-98.099c54.745,0.691 132.848,0.553 187.578,-0.129Z" style="fill:#234b62;"/><path d="M620.29,145.777c56.054,0 101.562,45.509 101.562,101.563c0,56.054 -45.508,101.562 -101.562,101.562c-56.054,0 -101.563,-45.508 -101.563,-101.562c0,-56.054 45.509,-101.563 101.563,-101.563Zm-0,58.334c23.859,-0 43.229,19.37 43.229,43.229c0,23.859 -19.37,43.229 -43.229,43.229c-23.859,-0 -43.229,-19.37 -43.229,-43.229c-0,-23.859 19.37,-43.229 43.229,-43.229Z" style="fill:#234b62;"/><path d="M1055.94,1141.38l149.405,260.774c8.282,14.455 8.238,32.227 -0.116,46.641c-8.353,14.414 -23.752,23.287 -40.412,23.287c-168.337,-0 -555.601,-0 -724.211,-0c-16.725,-0 -32.183,-8.908 -40.57,-23.378c-8.386,-14.47 -8.431,-32.312 -0.116,-46.823l125.291,-218.684c-0,-0 24.459,-62.93 129.209,-62.93c104.749,0 188.264,50.81 293.014,50.81c71.684,0 108.506,-29.697 108.506,-29.697Zm-70.501,129.121c22.974,0 41.626,18.652 41.626,41.626c-0,22.974 -18.652,41.626 -41.626,41.626c-22.974,-0 -41.626,-18.652 -41.626,-41.626c0,-22.974 18.652,-41.626 41.626,-41.626Z" style="fill:#234b62;"/><path d="M943.811,0c77.647,0 140.686,63.039 140.686,140.686c0,77.647 -63.039,140.686 -140.686,140.686c-77.647,0 -140.686,-63.039 -140.686,-140.686c0,-77.647 63.039,-140.686 140.686,-140.686Zm0,58.333c45.452,0 82.353,36.901 82.353,82.353c0,45.452 -36.901,82.353 -82.353,82.353c-45.452,0 -82.353,-36.901 -82.353,-82.353c0,-45.452 36.901,-82.353 82.353,-82.353Z" style="fill:#234b62;"/></svg>