<svg xmlns="http://www.w3.org/2000/svg" viewBox="0 0 48 48"><title>Woman Doctor Europe</title><g id="Woman_Doctor_Europe" data-name="Woman Doctor Europe"><path d="M43,35.82c-.13-.74-.39-.67-5-2.43V13a13.94,13.94,0,0,0-4.1-9.9C25.15-5.64,10,.5,10,13V33.39L5.64,35.07C4.91,35.35,5.17,35,3,46.82a1,1,0,0,0,2,.36l1.9-10.45L11.35,35A8,8,0,0,0,11,38.14,4,4,0,0,0,8,42v1a1,1,0,0,0,1,1h1a1,1,0,0,0,0-2,2,2,0,0,1,4,0,1,1,0,0,0,0,2h1a1,1,0,0,0,1-1V42a4,4,0,0,0-3-3.86c0-4,1-4.15,5-5.68V47a1,1,0,0,0,2,0V40.41l4-4,4,4V47a1,1,0,0,0,2,0V32.46c2.69,1,5,1.43,5,4.72a3,3,0,1,0,2,0A6,6,0,0,0,36.65,35l4.47,1.72L43,47.18a1,1,0,0,0,2-.36ZM36,41a1,1,0,0,1,0-2A1,1,0,0,1,36,41ZM34,18V14A2,2,0,0,1,34,18ZM21,31V29.54a10.06,10.06,0,0,0,6,0V31C27,35,21,35,21,31Zm-4.24-7.61a20.09,20.09,0,0,1,14.48,0A8,8,0,0,1,16.76,23.39ZM14,14v4A2,2,0,0,1,14,14Zm17.86,7.46a22,22,0,0,0-15.72,0c-.19-1-.14-.95-.14-7.77,3.85-1.44,6.56-2.23,9.85-5.18A19,19,0,0,0,32,13.57C32,20.7,32,20.49,31.86,21.46ZM24,1A12,12,0,0,1,36,12.54a4.59,4.59,0,0,0-2.7-.54C31,10.62,28.85,9.48,26.83,6.45a1,1,0,0,0-1.54-.16C22,9.61,19.06,10.41,14.82,12a4.71,4.71,0,0,0-2.8.54A12,12,0,0,1,24,1ZM12,32.62V19.44A3.91,3.91,0,0,0,14,20a10.08,10.08,0,0,0,5,8.65c0,1.76.12,1.24-.36,1.42ZM20,34c1.85,2.48,3.16.46,0,3.62Zm8,0v3.62C24.86,34.44,26.13,36.49,28,34Zm1.36-3.9c-.48-.19-.36.35-.36-1.42A10,10,0,0,0,34,20a3.91,3.91,0,0,0,2-.56V32.62Z"/><path d="M24,39a1,1,0,0,0,0,2A1,1,0,0,0,24,39Z"/><path d="M24,43a1,1,0,0,0,0,2A1,1,0,0,0,24,43Z"/><path d="M19.5,15a1.5,1.5,0,0,0,0,3A1.5,1.5,0,0,0,19.5,15Z"/><path d="M28.5,15a1.5,1.5,0,0,0,0,3A1.5,1.5,0,0,0,28.5,15Z"/></g></svg>